<svg height='300px' width='300px'  fill="#fff" xmlns="http://www.w3.org/2000/svg" xmlns:xlink="http://www.w3.org/1999/xlink" version="1.1" x="0px" y="0px" viewBox="0 0 100 100" style="enable-background:new 0 0 100 100;" xml:space="preserve"><path d="M71.4951172,44.1679688h-4.5820312v-7.1542969c0-0.5527344-0.4472656-1-1-1H17.6650391c-0.5527344,0-1,0.4472656-1,1  v46.0712891c0,3.8125,3.1025391,6.9150391,6.9150391,6.9150391h36.4179688c3.8125,0,6.9150391-3.1025391,6.9150391-6.9150391  v-8.9882812h4.5820312c6.5283203,0,11.8398438-5.3105469,11.8398438-11.8388672v-6.25  C83.3349609,49.4794922,78.0234375,44.1679688,71.4951172,44.1679688z M64.9130859,38.0136719V49H18.6650391V38.0136719H64.9130859z   M64.9130859,83.0849609C64.9130859,85.7949219,62.7080078,88,59.9980469,88H23.5800781  c-2.7099609,0-4.9150391-2.2050781-4.9150391-4.9150391V51h46.2480469V83.0849609z M81.3349609,62.2578125  c0,5.4248047-4.4140625,9.8388672-9.8398438,9.8388672h-4.5820312V46.1679688h4.5820312  c5.4257812,0,9.8398438,4.4140625,9.8398438,9.8398438V62.2578125z"></path><path d="M29.8369141,24.9672852c0,2.3618164,0.8422852,3.5874023,1.5849609,4.668457  c0.1938477,0.2822266,0.5068359,0.4335938,0.8251953,0.4335938c0.1953125,0,0.3920898-0.0571289,0.5654297-0.1757812  c0.4550781-0.3129883,0.5703125-0.9355469,0.2578125-1.390625c-0.6616211-0.9628906-1.2333984-1.7949219-1.2333984-3.5356445  c0-1.7402344,0.5712891-2.5722656,1.2333984-3.5351562c0.7426758-1.081543,1.5844727-2.3066406,1.5844727-4.6679688  c0-2.8725586-1.1318359-4.3955078-2.0415039-5.6196289c-0.175293-0.2358398-0.347168-0.4667969-0.5063477-0.703125  c-0.309082-0.4575195-0.9301758-0.5791016-1.3881836-0.2709961c-0.4580078,0.3085938-0.5795898,0.9301758-0.2709961,1.3881836  c0.1762695,0.2617188,0.3662109,0.5180664,0.5605469,0.7788086c0.8466797,1.1396484,1.6464844,2.2158203,1.6464844,4.4267578  c0,1.7402344-0.5712891,2.5722656-1.2333984,3.5351562C30.6787109,21.3808594,29.8369141,22.605957,29.8369141,24.9672852z"></path><path d="M38.784668,24.9672852c0,2.3608398,0.8413086,3.5859375,1.5834961,4.6669922  c0.1938477,0.2822266,0.5068359,0.434082,0.8251953,0.434082c0.1953125,0,0.3925781-0.0571289,0.5654297-0.1757812  c0.4550781-0.3125,0.5708008-0.9350586,0.2583008-1.3901367c-0.6611328-0.9633789-1.2324219-1.7949219-1.2324219-3.5351562  s0.5712891-2.5722656,1.2333984-3.5351562c0.7426758-1.081543,1.5844727-2.3066406,1.5844727-4.6679688  c0-2.8720703-1.1313477-4.3950195-2.0410156-5.6186523c-0.175293-0.2358398-0.3476562-0.4672852-0.5068359-0.7041016  C40.7460938,9.9838867,40.125,9.8623047,39.6665039,10.1704102c-0.4580078,0.3085938-0.5795898,0.9296875-0.2709961,1.3881836  c0.1762695,0.262207,0.3666992,0.5185547,0.5610352,0.7797852c0.8461914,1.1396484,1.6459961,2.2158203,1.6459961,4.4257812  c0,1.7402344-0.5712891,2.5722656-1.2333984,3.5351562C39.6264648,21.3808594,38.784668,22.605957,38.784668,24.9672852z"></path><path d="M47.7324219,24.9672852c0,2.3623047,0.8417969,3.5874023,1.5844727,4.668457  c0.1938477,0.2822266,0.5068359,0.4335938,0.8251953,0.4335938c0.1953125,0,0.3920898-0.0571289,0.5654297-0.1757812  c0.4550781-0.3129883,0.5703125-0.9355469,0.2578125-1.390625c-0.6616211-0.9628906-1.2329102-1.7939453-1.2329102-3.5356445  c0-1.7402344,0.5712891-2.5722656,1.2329102-3.5351562c0.7426758-1.081543,1.5844727-2.3066406,1.5844727-4.6679688  c0-2.8725586-1.1318359-4.3955078-2.0415039-5.6196289c-0.175293-0.2358398-0.347168-0.4667969-0.5063477-0.703125  c-0.309082-0.4575195-0.9287109-0.5791016-1.3881836-0.2709961c-0.4580078,0.3085938-0.5795898,0.9301758-0.2709961,1.3881836  c0.1762695,0.2617188,0.3662109,0.5180664,0.5605469,0.7788086c0.8466797,1.1396484,1.6464844,2.2158203,1.6464844,4.4267578  c0,1.7402344-0.5712891,2.5722656-1.2329102,3.5351562C48.5742188,21.3808594,47.7324219,22.605957,47.7324219,24.9672852z"></path></svg>
