<svg id="Capa_1" enable-background="new 0 0 512 512" height="512" viewBox="0 0 512 512" width="512" xmlns="http://www.w3.org/2000/svg"><g><path d="m489.494 41.994h-52.65c-4.15 0-7.515 3.365-7.515 7.515s3.364 7.515 7.515 7.515h52.65c4.122 0 7.477 3.354 7.477 7.476v52.418h-481.942v-52.419c0-4.122 3.354-7.476 7.477-7.476h384.279c4.15 0 7.515-3.364 7.515-7.515s-3.365-7.515-7.515-7.515h-384.279c-12.41.001-22.506 10.097-22.506 22.506v383.001c0 12.41 10.096 22.506 22.506 22.506h90.701c4.15 0 7.515-3.365 7.515-7.515s-3.365-7.515-7.515-7.515h-90.701c-4.123 0-7.477-3.354-7.477-7.477v-315.552h481.941v315.553c0 4.123-3.354 7.477-7.477 7.477h-346.227c-4.15 0-7.515 3.365-7.515 7.515s3.364 7.515 7.515 7.515h346.228c12.41 0 22.506-10.096 22.506-22.506v-383.002c0-12.409-10.096-22.505-22.506-22.505z"/><path d="m40.462 86.242c0 6.939 5.645 12.584 12.584 12.584s12.584-5.645 12.584-12.584-5.645-12.584-12.584-12.584-12.584 5.645-12.584 12.584z"/><path d="m78.057 86.242c0 6.939 5.645 12.584 12.584 12.584s12.584-5.645 12.584-12.584-5.645-12.584-12.584-12.584-12.584 5.645-12.584 12.584z"/><path d="m115.652 86.242c0 6.939 5.645 12.584 12.584 12.584s12.584-5.645 12.584-12.584-5.645-12.584-12.584-12.584-12.584 5.645-12.584 12.584z"/><path d="m297.997 181.576c-13.437-5.179-27.614-7.805-42.137-7.805-64.623 0-117.198 52.575-117.198 117.198s52.575 117.198 117.198 117.198 117.198-52.575 117.198-117.198c0-37.253-17.116-71.452-46.959-93.827-3.32-2.489-8.031-1.816-10.52 1.505-2.49 3.32-1.816 8.031 1.504 10.52 26.021 19.51 40.945 49.325 40.945 81.802 0 56.336-45.833 102.169-102.169 102.169s-102.169-45.833-102.169-102.169 45.834-102.169 102.171-102.169c12.667 0 25.025 2.288 36.731 6.799 3.873 1.492 8.223-.437 9.714-4.309 1.493-3.872-.437-8.222-4.309-9.714z"/><path d="m222.973 236.192c-5.008 2.757-8.12 8.02-8.12 13.738v87.8c0 5.717 3.112 10.981 8.12 13.738 2.359 1.298 4.961 1.943 7.561 1.943 2.92 0 5.835-.815 8.39-2.433 0 0 0 0 0-.001l69.316-43.9c4.513-2.858 7.29-7.906 7.29-13.247 0-5.342-2.778-10.389-7.291-13.247l-69.316-43.901c-4.83-3.059-10.942-3.247-15.95-.49zm77.528 57.637c0 .359-.205.489-.302.551l-69.316 43.9c-.436.278-1-.047-1-.55v-87.8c0-.514.566-.824 1-.551l69.316 43.9c.097.062.302.192.302.55z"/></g></svg>